<?xml version="1.0" encoding="iso-8859-1"?>
<!-- Generator: Adobe Illustrator 19.0.0, SVG Export Plug-In . SVG Version: 6.00 Build 0)  -->
<svg xmlns="http://www.w3.org/2000/svg" xmlns:xlink="http://www.w3.org/1999/xlink" version="1.1" id="Layer_1" x="0px" y="0px" viewBox="0 0 484 484" style="enable-background:new 0 0 484 484;" xml:space="preserve" width="512px" height="512px">
<g transform="translate(0 -540.36)">
	<g>
		<g>
			<path d="M213.8,702.36l-2.4,22.9c-0.3,2.9,1,5.7,3.4,7.4c2.4,1.7,5.5,1.9,8.1,0.6l19.1-9.5l20.5,9.6c1.1,0.6,2.2,0.8,3.4,0.8     c1.7,0,3.4-0.6,5.1-1.8c2.4-1.7,3.6-4.7,3.1-7.6l-3.6-22.8l15.7-16.8c2-2.1,2.6-5.2,1.7-8c-1-2.8-3.4-4.8-6.3-5.3l-21.5-3.6     l-10.9-20.4c-1.4-2.6-4.1-4.2-7.1-4.2s-5.7,1.6-7.1,4.2l-11,20.6l-21.8,4.8c-2.9,0.7-5.2,2.8-6,5.6c-0.9,2.8-0.1,5.8,2,7.9     L213.8,702.36z M231,683.36c2.3-0.6,4.2-2,5.3-4.1l5.6-10.6l5.6,10.6c1.2,2.2,3.3,3.7,5.8,4.1l10.7,1.8l-8.2,8.8     c-1.7,1.8-2.5,4.3-2.1,6.7l1.9,11.8l-10.3-4.8c-1.1-0.5-2.2-0.8-3.4-0.8h0c-1.2,0-2.4,0.3-3.5,0.9l-9.5,4.7l1.3-12.2     c0.3-2.4-0.6-4.8-2.3-6.5l-8-7.9L231,683.36z" fill="#568549"/>
			<polygon points="265.9,734.16 265.9,734.16 265.9,734.16    " fill="#568549"/>
			<path d="M241.9,781.36c51,0,92.5-41.5,92.5-92.5s-41.5-92.5-92.5-92.5s-92.5,41.5-92.5,92.5S190.9,781.36,241.9,781.36z      M241.9,612.36c42.2,0,76.5,34.4,76.5,76.5c0,42.2-34.3,76.5-76.5,76.5s-76.5-34.3-76.5-76.5S199.7,612.36,241.9,612.36z" fill="#568549"/>
			<path d="M457.9,576.86L457.9,576.86l-76.7,0v-28.5c0-4.4-3.6-8-8-8H110.6c-4.4,0-8,3.6-8,8v28.5H25.9c-4.4,0-8,3.6-8,8v94.2     c0,2.7,1.3,5.2,3.6,6.7l83,55.1c3.4,14.7,10.7,26.7,17.9,37c0.1,0.1,0.2,0.2,0.2,0.3c9.9,12.6,24,20.8,37.7,28.8     c15.6,9.1,30.4,17.7,37.8,31.8c0,0,0,0.1,0.1,0.1c7.1,12.9,11.4,32.7,4.2,45.7c-0.1,0.2-0.2,0.3-0.2,0.5     c-7.4,15.9-28.3,23.5-47.4,29.5c-3.3,1-5.6,4.1-5.6,7.6v32.7c-23.4,6.8-42.9,25.7-50.4,50.6l-6.3,18.9h298.9l-6.3-18.9     c-7.5-24.8-27-43.7-50.4-50.6v-32.7c0-4.4-3.6-8-8-8c-18.2,0-35.9-11-45.1-28c-6.4-12.9-4.3-31.9,5.5-48.5     c0.1-0.1,0.2-0.3,0.2-0.5c6.5-13,20.8-21.2,36-29.8c14.1-8.1,28.7-16.4,38.2-29.5c0,0,0-0.1,0.1-0.1c7.2-10.3,14.5-22.3,17.9-37     l83-55.1c2.2-1.5,3.6-4,3.6-6.7v-94.2C465.9,580.46,462.3,576.86,457.9,576.86z M102.6,720.36l-68.7-45.6v-81.9h68.7V720.36z      M369.2,1008.36H114.6c8-23.8,29.9-40.2,53.9-40.2h146.8C339.3,968.16,361.2,984.56,369.2,1008.36z M365.2,724.06     c0,18-8.1,32-16.9,44.5c-7.5,10.3-19.9,17.4-33.1,25c-16.5,9.4-33.5,19.2-42.2,36.3c-12.3,21.1-14.6,46.1-5.8,63.6     c0,0.1,0.1,0.1,0.1,0.2c10.7,19.7,30.2,33.2,51.3,36v22.5h-3.3H168.5h-3.3v-24.1c20.6-6.8,42-16.1,51.4-36     c9.9-18.4,5-43.7-4.3-60.8c-9.6-18.2-27-28.3-43.9-38.2c-12.9-7.5-25-14.6-33-24.7c-8.7-12.4-16.8-26.4-16.8-44.4v-167.6h246.6     V724.06z M449.9,674.76l-68.7,45.6v-127.5h68.7V674.76z" fill="#568549"/>
		</g>
	</g>
</g>
<g>
</g>
<g>
</g>
<g>
</g>
<g>
</g>
<g>
</g>
<g>
</g>
<g>
</g>
<g>
</g>
<g>
</g>
<g>
</g>
<g>
</g>
<g>
</g>
<g>
</g>
<g>
</g>
<g>
</g>
</svg>
